# xmcd CD database file generated by Grip 2.96
# 
# Track frame offsets:
#       182
#       21390
#       50362
#       71335
#       91687
#       114332
#       134052
#       150050
#       170300
#       193460
#       214382
#       234045
#       254235
#       276105
#       298065
#       318197
# 
# Disc length: 4543 seconds
# 
# Revision: 0
# Processed by: cddbd v1.4PL0 Copyright (c) Steve Scherf et al.
# Submitted via: Grip 2.96
# 
DISCID=e511bd10
DTITLE=Johnny Mokhali - The Sound of Freedom
DYEAR=1900
DGENRE=
TTITLE0=Tse Lerato (Love Matters)
TTITLE1=Ba Tlogeleng (Leave Them)
TTITLE2=Rre O Kae (Where is My Father)
TTITLE3=Ke Na Le Jesu (I've got Jesus)
TTITLE4=Go Sa Itse (Not to Know)
TTITLE5=Lerato Ka Mogala (Love on the Telephone)
TTITLE6=Luki
TTITLE7=Sesa Feleng (That doesn't End)
TTITLE8=Ramatlantlana
TTITLE9=Semphete (Don't Pass Me)
TTITLE10=O Wa Mpelaetsa (I Doubt You)
TTITLE11=Go Siame (It's Alright)
TTITLE12=Mgwanaka (My Child)
TTITLE13=Mosala Gae (You Remain at Home)
TTITLE14=Setlhare Ke Sefe (What is the Remedy)
TTITLE15=Mafoko A Bofelo (Last Words)
EXTD=
EXTT0=
EXTT1=
EXTT2=
EXTT3=
EXTT4=
EXTT5=
EXTT6=
EXTT7=
EXTT8=
EXTT9=
EXTT10=
EXTT11=
EXTT12=
EXTT13=
EXTT14=
EXTT15=
PLAYORDER=
